<svg width="124" height="187" viewBox="0 0 124 187" fill="none" xmlns="http://www.w3.org/2000/svg">
<path d="M28.5069 43.2338C-17.1041 77.2033 5.70137 125.069 5.70137 125.069C5.70137 125.069 17.8643 72.5711 98.4437 41.6898C98.4437 41.6898 71.0771 61.5339 77.1586 57.1304C77.1586 57.1304 18.3219 100.834 10.5251 131.666C10.3339 132.422 10.1232 133.14 9.86323 133.874C7.89027 139.446 -0.304344 165.268 10.3838 182.844C13.313 187.661 20.9136 188.822 22.7358 183.472C23.0704 182.49 23.1632 181.424 22.8701 180.296C22.6581 179.48 22.3138 178.726 22.0953 177.911C20.3688 171.478 12.7618 141.06 20.905 132.79C46.7512 134.334 63.4753 129.702 63.4753 129.702C86.9648 125.492 110.454 89.3989 114.543 82.8518C114.967 82.173 115.318 81.4518 115.6 80.7008C131.68 37.9286 119.729 0 119.729 0C101.484 18.5288 89.3215 20.0729 89.3215 20.0729C43.7105 30.8813 28.5069 43.2338 28.5069 43.2338Z" fill="#DAF4DC" fill-opacity="0.28"/>
</svg>
