<svg width="42" height="63" viewBox="0 0 42 63" fill="none" xmlns="http://www.w3.org/2000/svg">
<path d="M9.65555 14.5654C-5.79333 26.0097 1.93111 42.1356 1.93111 42.1356C1.93111 42.1356 6.05081 24.4491 33.3438 14.0452C33.3438 14.0452 24.0745 20.7307 26.1343 19.2471C26.1343 19.2471 6.2058 33.971 3.56494 44.3581C3.5002 44.6127 3.42884 44.8547 3.34077 45.1021C2.67251 46.9792 -0.103084 55.6785 3.5171 61.5998C4.50923 63.2226 7.08365 63.614 7.70084 61.8115C7.81416 61.4806 7.84561 61.1215 7.74633 60.7414C7.67453 60.4665 7.55789 60.2124 7.48388 59.9381C6.89911 57.7707 4.32254 47.5228 7.08073 44.7366C15.8351 45.2568 21.4997 43.6962 21.4997 43.6962C29.4558 42.2779 37.4119 30.1183 38.7967 27.9126C38.9403 27.6839 39.0594 27.441 39.155 27.188C44.6012 12.7781 40.5533 0 40.5533 0C34.3737 6.24232 30.254 6.76251 30.254 6.76251C14.8052 10.4039 9.65555 14.5654 9.65555 14.5654Z" fill="#D1EBD3"/>
</svg>
