<svg width="32" height="32" viewBox="0 0 32 32" fill="none" xmlns="http://www.w3.org/2000/svg">
<path d="M24 10.186H13.6V17.1988H12.4923V14.8151C12.491 13.4645 12.0291 12.1697 11.2078 11.2147C10.3865 10.2596 9.27294 9.72245 8.11145 9.72093H5.6V6H4V26H5.6V23.2242L26.4 23.4177V26H28V14.8372C27.9988 13.6041 27.577 12.4218 26.8271 11.5499C26.0772 10.6779 25.0605 10.1874 24 10.186ZM5.6 11.5814H8.11145C8.84872 11.5824 9.55556 11.9234 10.0769 12.5296C10.5982 13.1357 10.8915 13.9577 10.8923 14.8149V17.1987H5.6V11.5814ZM26.4 21.5572L5.6 21.3637V19.0592H26.4V21.5572ZM26.4 17.1988H15.2V12.0465H24C24.6363 12.0474 25.2463 12.3416 25.6963 12.8648C26.1462 13.388 26.3993 14.0973 26.4 14.8372V17.1988Z" fill="#1B3E1E"/>
</svg>
