<svg width="17" height="16" viewBox="0 0 17 16" fill="none" xmlns="http://www.w3.org/2000/svg">
<path d="M10.1501 8L5.25006 3.1C5.08339 2.93333 5.00273 2.736 5.00806 2.508C5.01339 2.28 5.09962 2.08289 5.26673 1.91667C5.43384 1.75044 5.63117 1.66711 5.85873 1.66667C6.08628 1.66622 6.28339 1.74955 6.45006 1.91667L11.5667 7.05C11.7001 7.18333 11.8001 7.33333 11.8667 7.5C11.9334 7.66667 11.9667 7.83333 11.9667 8C11.9667 8.16667 11.9334 8.33333 11.8667 8.5C11.8001 8.66667 11.7001 8.81667 11.5667 8.95L6.43339 14.0833C6.26673 14.25 6.07228 14.3307 5.85006 14.3253C5.62784 14.32 5.43339 14.2338 5.26673 14.0667C5.10006 13.8996 5.01673 13.7022 5.01673 13.4747C5.01673 13.2471 5.10006 13.05 5.26673 12.8833L10.1501 8Z" fill="#F1F3F1"/>
</svg>
