<svg width="32" height="32" viewBox="0 0 32 32" fill="none" xmlns="http://www.w3.org/2000/svg">
<path fill-rule="evenodd" clip-rule="evenodd" d="M25.9996 12.1111C25.9996 12.9539 25.6805 13.7653 25.1063 14.3823C24.5322 14.9992 23.7457 15.3757 22.9051 15.4361L21.2101 17.1306C21.6851 17.9344 21.899 19.0011 22.004 20.1872C22.1107 21.3922 22.1107 22.8011 22.1107 24.3144V24.8889H20.9996V24.3333C20.9996 22.7978 20.9996 21.4361 20.8973 20.2856C20.8079 19.2778 20.6446 18.4928 20.3735 17.9228C19.7085 17.8339 19.1012 17.4994 18.5812 17.0872C17.9679 16.6017 17.4223 15.9678 16.9735 15.3567C16.5419 14.7651 16.1512 14.1447 15.804 13.5C15.0573 14.0167 14.0512 14.3333 12.944 14.3333C10.6429 14.3333 8.77734 12.9656 8.77734 11.2778C8.77734 9.72611 10.354 8.44444 12.3968 8.24833C13.109 6.94 15.0746 6 17.3885 6C20.004 6 22.1751 7.20167 22.5935 8.77833L22.6662 8.77778C23.5503 8.77778 24.3981 9.12897 25.0233 9.75409C25.6484 10.3792 25.9996 11.2271 25.9996 12.1111ZM19.3479 12.4294C18.7069 12.5885 18.0489 12.6682 17.3885 12.6667C17.147 12.6667 16.9099 12.6567 16.6773 12.6367L16.6351 12.6967C16.6951 12.8122 16.774 12.9617 16.8707 13.1339C17.1877 13.7059 17.5418 14.2565 17.9307 14.7822V14.7011C18.5446 14.7011 19.189 14.3694 19.7235 13.9744C19.7646 13.9448 19.8044 13.9146 19.8429 13.8839C19.5661 13.4446 19.3966 12.9464 19.3479 12.4294ZM20.5846 14.7144C20.8674 14.9409 21.1853 15.1197 21.5257 15.2439L20.0701 16.6994C19.8116 16.5946 19.5451 16.4335 19.2707 16.2161C19.0747 16.0585 18.8886 15.8889 18.7135 15.7083C19.3707 15.5383 19.9523 15.1867 20.3835 14.8689C20.4538 14.817 20.5209 14.7656 20.5846 14.7144Z" fill="#1B3E1E"/>
<path d="M11.28 18.2233C11.6484 18.223 12.0015 18.0764 12.2618 17.8158C12.522 17.5551 12.6681 17.2017 12.6678 16.8333C12.6675 16.465 12.5209 16.1118 12.2602 15.8516C11.9995 15.5913 11.6461 15.4453 11.2778 15.4456C10.9094 15.4459 10.5563 15.5925 10.296 15.8531C10.1671 15.9822 10.065 16.1354 9.9953 16.304C9.92563 16.4725 9.88985 16.6532 9.89 16.8356C9.89015 17.0179 9.92621 17.1985 9.99615 17.367C10.0661 17.5354 10.1685 17.6885 10.2976 17.8173C10.5583 18.0776 10.9116 18.2236 11.28 18.2233ZM7.39111 20.4456C7.75947 20.4453 8.11262 20.2987 8.37288 20.038C8.63314 19.7773 8.77918 19.4239 8.77889 19.0556C8.77859 18.6872 8.63198 18.334 8.37131 18.0738C8.11063 17.8135 7.75725 17.6675 7.38889 17.6678C7.02053 17.6681 6.66738 17.8147 6.40712 18.0754C6.14686 18.336 6.00082 18.6894 6.00111 19.0578C6.00141 19.4261 6.14802 19.7793 6.40869 20.0395C6.66937 20.2998 7.02275 20.4459 7.39111 20.4456ZM18.2233 19.0556C18.2235 19.2379 18.1877 19.4186 18.118 19.5871C18.0484 19.7557 17.9462 19.9089 17.8173 20.038C17.6885 20.167 17.5354 20.2695 17.367 20.3394C17.1985 20.4093 17.0179 20.4454 16.8356 20.4456C16.4672 20.4459 16.1138 20.2998 15.8531 20.0395C15.5925 19.7793 15.4459 19.4261 15.4456 19.0578C15.4454 18.8754 15.4812 18.6948 15.5509 18.5262C15.6205 18.3576 15.7227 18.2044 15.8516 18.0754C16.1118 17.8147 16.465 17.6681 16.8333 17.6678C17.2017 17.6675 17.5551 17.8135 17.8158 18.0738C18.0764 18.334 18.223 18.6872 18.2233 19.0556ZM11 18.7778C11.2947 18.7778 11.5773 18.8948 11.7857 19.1032C11.994 19.3116 12.1111 19.5942 12.1111 19.8889V21H13.2222C13.5169 21 13.7995 21.1171 14.0079 21.3254C14.2163 21.5338 14.3333 21.8164 14.3333 22.1111C14.3333 22.4058 14.2163 22.6884 14.0079 22.8968C13.7995 23.1052 13.5169 23.2222 13.2222 23.2222H11C10.7053 23.2222 10.4227 23.1052 10.2143 22.8968C10.006 22.6884 9.88889 22.4058 9.88889 22.1111V19.8889C9.88889 19.5942 10.006 19.3116 10.2143 19.1032C10.4227 18.8948 10.7053 18.7778 11 18.7778ZM8.22222 22.1111C8.22222 21.8164 8.10516 21.5338 7.89679 21.3254C7.68841 21.1171 7.4058 21 7.11111 21C6.81643 21 6.53381 21.1171 6.32544 21.3254C6.11706 21.5338 6 21.8164 6 22.1111V24.8889C6 25.1836 6.11706 25.4662 6.32544 25.6746C6.53381 25.8829 6.81643 26 7.11111 26H9.33333C9.62802 26 9.91063 25.8829 10.119 25.6746C10.3274 25.4662 10.4444 25.1836 10.4444 24.8889C10.4444 24.5942 10.3274 24.3116 10.119 24.1032C9.91063 23.8948 9.62802 23.7778 9.33333 23.7778H8.22222V22.1111ZM17.1111 21C16.8164 21 16.5338 21.1171 16.3254 21.3254C16.1171 21.5338 16 21.8164 16 22.1111V23.7778H14.8889C14.5942 23.7778 14.3116 23.8948 14.1032 24.1032C13.8948 24.3116 13.7778 24.5942 13.7778 24.8889C13.7778 25.1836 13.8948 25.4662 14.1032 25.6746C14.3116 25.8829 14.5942 26 14.8889 26H17.1111C17.4058 26 17.6884 25.8829 17.8968 25.6746C18.1052 25.4662 18.2222 25.1836 18.2222 24.8889V22.1111C18.2222 21.8164 18.1052 21.5338 17.8968 21.3254C17.6884 21.1171 17.4058 21 17.1111 21Z" fill="#1B3E1E"/>
</svg>
