<svg width="30" height="32" viewBox="0 0 30 32" fill="none" xmlns="http://www.w3.org/2000/svg">
<path d="M24 24.5987L22.9114 25.753L20.2114 22.89C19.9286 23.4626 19.56 23.9716 19.1143 24.4078C18.4603 25.0617 17.6654 25.5361 16.7989 25.7896C15.9324 26.043 15.0205 26.0679 14.1429 25.8621C11.1343 25.1804 9.22286 22.0356 9.86571 18.8454C10.08 17.7729 10.5771 16.7913 11.2886 16.0006C11.429 15.8435 11.5073 15.6353 11.5073 15.4189C11.5073 15.2024 11.429 14.9942 11.2886 14.8372C10.734 14.1032 10.3679 13.2297 10.2257 12.3014L6 7.82051L7.09714 6.66622L24 24.5987ZM18.1629 22.8718C18.4971 22.481 18.7629 22.0265 18.9257 21.5266L16.8343 19.3089C16.68 19.518 16.44 19.6361 16.1914 19.6361C15.72 19.6361 15.3343 19.2271 15.3343 18.7272C15.3343 18.4637 15.4457 18.2092 15.6429 18.0456L13.2343 15.4916C13.2171 16.1642 12.9686 16.8004 12.5314 17.2821C11.0743 18.9272 11.16 21.5175 12.7114 23.0627L12.72 23.0718C13.4675 23.809 14.4602 24.2019 15.4804 24.1644C16.5006 24.1269 17.4652 23.6621 18.1629 22.8718ZM17.0486 20.545C15.9429 20.545 15.9514 22.3628 17.0486 22.3628C18.1457 22.3628 18.1543 20.545 17.0486 20.545ZM10.9629 8.45674L12.2743 9.84735C12.4886 9.37472 12.8057 8.95663 13.1914 8.62943C13.7914 8.10227 14.5543 7.82051 15.3343 7.82051H16.0886C16.5943 7.94776 17.0486 8.19316 17.4771 8.53854C18.9514 9.79281 19.1914 12.0832 18.0086 13.6465C17.6461 14.1202 17.4439 14.709 17.4343 15.3189L20.7514 18.8363C20.5371 17.7911 20.0486 16.8367 19.38 16.0551C19.08 15.7279 19.0457 15.2098 19.2943 14.8372C19.2943 14.8372 20.4771 13.2739 20.4771 11.4561C20.4771 9.6383 18.7371 6 15.3343 6C11.9314 6 10.9629 8.45674 10.9629 8.45674ZM15.3343 20.545C15.3343 19.3726 13.62 19.3816 13.62 20.545C13.62 21.7084 15.3343 21.7175 15.3343 20.545ZM16.1914 9.6383C15.0857 9.6383 15.0943 11.4561 16.1914 11.4561C17.2886 11.4561 17.2971 9.6383 16.1914 9.6383Z" fill="#1B3E1E"/>
</svg>
