<svg width="32" height="32" viewBox="0 0 32 32" fill="none" xmlns="http://www.w3.org/2000/svg">
<path d="M6.66667 13.3331L6.28 12.7904L6 12.9904V13.3331H6.66667ZM16 6.66627L16.3867 6.12359C16.2738 6.0432 16.1386 6 16 6C15.8614 6 15.7262 6.0432 15.6133 6.12359L16 6.66627ZM25.3333 13.3331H26V12.9904L25.72 12.7904L25.3333 13.3331ZM9.33333 17.3332V16.6665H8.66667V17.3332H9.33333ZM14.6667 17.3332H15.3333V16.6665H14.6667V17.3332ZM7.33333 26V13.3331H6V26H7.33333ZM7.05333 13.8758L16.3867 7.20895L15.6133 6.12359L6.28 12.7904L7.05333 13.8758ZM15.6133 7.20895L24.9467 13.8758L25.72 12.7904L16.3867 6.12359L15.6133 7.20895ZM24.6667 13.3331V26H26V13.3331H24.6667ZM10 26V17.3332H8.66667V26H10ZM9.33333 17.9998H14.6667V16.6665H9.33333V17.9998ZM14 17.3332V26H15.3333V17.3332H14ZM12.6667 21.9999H14.6667V20.6666H12.6667V21.9999ZM20.6667 16.6665V21.9999H22V16.6665H20.6667ZM23.3333 8.66631V11.9997H24.6667V8.66631H23.3333Z" fill="#1B3E1E"/>
</svg>
