<svg width="24" height="24" viewBox="0 0 24 24" fill="none" xmlns="http://www.w3.org/2000/svg">
<path d="M12.3851 5.99993C12.4871 5.99993 12.585 5.96482 12.6571 5.9023C12.7292 5.83979 12.7698 5.755 12.7698 5.66659C12.7698 5.57819 12.7292 5.4934 12.6571 5.43089C12.585 5.36837 12.4871 5.33325 12.3851 5.33325C12.2831 5.33325 12.1853 5.36837 12.1132 5.43089C12.041 5.4934 12.0005 5.57819 12.0005 5.66659C12.0005 5.755 12.041 5.83979 12.1132 5.9023C12.1853 5.96482 12.2831 5.99993 12.3851 5.99993ZM18.1544 7.3333C18.1544 7.51012 18.0733 7.67969 17.9291 7.80472C17.7848 7.92974 17.5892 7.99998 17.3851 7.99998C17.1811 7.99998 16.9855 7.92974 16.8412 7.80472C16.697 7.67969 16.6159 7.51012 16.6159 7.3333C16.6159 7.15649 16.697 6.98691 16.8412 6.86189C16.9855 6.73686 17.1811 6.66662 17.3851 6.66662C17.5892 6.66662 17.7848 6.73686 17.9291 6.86189C18.0733 6.98691 18.1544 7.15649 18.1544 7.3333ZM17.0005 10.6667C17.1521 10.6667 17.3021 10.6408 17.4421 10.5906C17.5821 10.5403 17.7093 10.4667 17.8164 10.3738C17.9236 10.281 18.0086 10.1707 18.0665 10.0494C18.1245 9.92806 18.1544 9.79802 18.1544 9.66669C18.1544 9.53537 18.1245 9.40533 18.0665 9.284C18.0086 9.16267 17.9236 9.05243 17.8164 8.95957C17.7093 8.86671 17.5821 8.79305 17.4421 8.74279C17.3021 8.69253 17.1521 8.66667 17.0005 8.66667C16.6945 8.66667 16.401 8.77203 16.1846 8.95957C15.9682 9.14711 15.8467 9.40147 15.8467 9.66669C15.8467 9.93191 15.9682 10.1863 16.1846 10.3738C16.401 10.5614 16.6945 10.6667 17.0005 10.6667ZM11.6159 14.0001C11.9219 14.0001 12.2154 13.8948 12.4318 13.7072C12.6482 13.5197 12.7698 13.2653 12.7698 13.0001C12.7698 12.7349 12.6482 12.4805 12.4318 12.293C12.2154 12.1054 11.9219 12.0001 11.6159 12.0001C11.3099 12.0001 11.0164 12.1054 10.8 12.293C10.5836 12.4805 10.4621 12.7349 10.4621 13.0001C10.4621 13.2653 10.5836 13.5197 10.8 13.7072C11.0164 13.8948 11.3099 14.0001 11.6159 14.0001ZM8.15437 12.3334C8.15437 12.5986 8.03281 12.853 7.81642 13.0405C7.60003 13.2281 7.30654 13.3334 7.00053 13.3334C6.69451 13.3334 6.40102 13.2281 6.18463 13.0405C5.96825 12.853 5.84668 12.5986 5.84668 12.3334C5.84668 12.0682 5.96825 11.8138 6.18463 11.6263C6.40102 11.4388 6.69451 11.3334 7.00053 11.3334C7.30654 11.3334 7.60003 11.4388 7.81642 11.6263C8.03281 11.8138 8.15437 12.0682 8.15437 12.3334ZM15.0774 12.6668C15.2815 12.6668 15.4771 12.5965 15.6214 12.4715C15.7656 12.3465 15.8467 12.1769 15.8467 12.0001C15.8467 11.8233 15.7656 11.6537 15.6214 11.5287C15.4771 11.4036 15.2815 11.3334 15.0774 11.3334C14.8734 11.3334 14.6778 11.4036 14.5335 11.5287C14.3893 11.6537 14.3082 11.8233 14.3082 12.0001C14.3082 12.1769 14.3893 12.3465 14.5335 12.4715C14.6778 12.5965 14.8734 12.6668 15.0774 12.6668ZM12.0005 10.6667C12.2045 10.6667 12.4002 10.5965 12.5445 10.4714C12.6887 10.3464 12.7698 10.1768 12.7698 10C12.7698 9.82322 12.6887 9.65364 12.5445 9.52862C12.4002 9.40359 12.2045 9.33335 12.0005 9.33335C11.7965 9.33335 11.6009 9.40359 11.4566 9.52862C11.3123 9.65364 11.2313 9.82322 11.2313 10C11.2313 10.1768 11.3123 10.3464 11.4566 10.4714C11.6009 10.5965 11.7965 10.6667 12.0005 10.6667ZM8.9236 10C8.9236 10.1768 8.84256 10.3464 8.6983 10.4714C8.55404 10.5965 8.35838 10.6667 8.15437 10.6667C7.95036 10.6667 7.7547 10.5965 7.61044 10.4714C7.46619 10.3464 7.38514 10.1768 7.38514 10C7.38514 9.82322 7.46619 9.65364 7.61044 9.52862C7.7547 9.40359 7.95036 9.33335 8.15437 9.33335C8.35838 9.33335 8.55404 9.40359 8.6983 9.52862C8.84256 9.65364 8.9236 9.82322 8.9236 10ZM6.2313 15.3335C6.3333 15.3335 6.43113 15.2984 6.50326 15.2359C6.57539 15.1734 6.61591 15.0886 6.61591 15.0002C6.61591 14.9117 6.57539 14.827 6.50326 14.7644C6.43113 14.7019 6.3333 14.6668 6.2313 14.6668C6.12929 14.6668 6.03146 14.7019 5.95933 14.7644C5.8872 14.827 5.84668 14.9117 5.84668 15.0002C5.84668 15.0886 5.8872 15.1734 5.95933 15.2359C6.03146 15.2984 6.12929 15.3335 6.2313 15.3335ZM11.2313 16.0002C11.2313 16.177 11.1503 16.3466 11.006 16.4716C10.8617 16.5966 10.6661 16.6669 10.4621 16.6669C10.2581 16.6669 10.0624 16.5966 9.91814 16.4716C9.77388 16.3466 9.69283 16.177 9.69283 16.0002C9.69283 15.8234 9.77388 15.6538 9.91814 15.5288C10.0624 15.4037 10.2581 15.3335 10.4621 15.3335C10.6661 15.3335 10.8617 15.4037 11.006 15.5288C11.1503 15.6538 11.2313 15.8234 11.2313 16.0002ZM14.3082 7.66664C14.3082 7.75505 14.2677 7.83984 14.1956 7.90235C14.1234 7.96486 14.0256 7.99998 13.9236 7.99998C13.8216 7.99998 13.7238 7.96486 13.6516 7.90235C13.5795 7.83984 13.539 7.75505 13.539 7.66664C13.539 7.57823 13.5795 7.49345 13.6516 7.43093C13.7238 7.36842 13.8216 7.3333 13.9236 7.3333C14.0256 7.3333 14.1234 7.36842 14.1956 7.43093C14.2677 7.49345 14.3082 7.57823 14.3082 7.66664Z" fill="#1B3E1E"/>
<path d="M13.88 2.00454C15.0462 2.05787 16.0569 2.57855 16.7192 3.17924L21.0638 6.95999C21.7823 7.59334 22.0331 8.44203 21.9954 9.26538L22 11.9821C22 12.2108 21.9662 12.4655 21.8369 12.7455C21.71 13.0188 21.5077 13.2828 21.2231 13.5542C20.6669 14.0835 19.7254 14.7055 18.1769 15.5429C17.7692 15.7629 17.3254 16.1516 16.8423 16.6782C16.3638 17.1982 15.8908 17.8036 15.4054 18.4256L15.3977 18.4349C14.9946 18.9523 14.5808 19.4816 14.17 19.947C13.7608 20.4103 13.3215 20.8483 12.8554 21.1603C12.4223 21.451 11.5285 21.827 10.5231 21.955C9.5 22.085 8.22692 21.971 7.22615 21.105C6.43846 20.423 5.57 19.5816 4.80846 18.837L4.58231 18.6156C3.90539 17.9536 3.34846 17.4083 3.00462 17.1202C2.42539 16.6349 2.19308 15.9729 2.09154 15.5095C2.03042 15.2259 1.99978 14.938 2 14.6495V14.6362L2.00385 12.5835C1.99963 12.4768 1.99963 12.3701 2.00385 12.2635V12.2541C2.03462 11.5674 2.24231 10.9541 2.48769 10.5221C3.10769 9.42872 4.23846 8.83137 5.48846 8.20203C7.29 7.29534 7.99 6.42198 8.95692 5.21662C9.39978 4.65403 9.86414 4.10437 10.3492 3.56858C11.4138 2.40722 12.6662 1.94854 13.88 2.00454ZM3.54154 12.5655C3.57311 13.2402 3.88829 13.8816 4.42769 14.3688C5.12605 15.012 5.80225 15.673 6.45539 16.3509L6.68846 16.5909C7.18154 17.0976 7.59615 17.5236 7.95539 17.8503L7.98923 17.8803L8.01769 17.9143C8.43308 18.4023 9.02769 18.6156 9.66231 18.6589C10.3169 18.7036 10.9415 18.5589 11.28 18.4023C11.5908 18.2583 12.0846 17.8516 12.6785 17.1556C13.2523 16.4822 13.8623 15.6062 14.4246 14.6155C14.9292 13.7248 15.7646 13.0188 16.5662 12.5155C17.3631 12.0155 18.2 11.6714 18.7831 11.5421C19.3831 11.4108 20.0138 10.8154 20.31 9.96607C20.3931 9.7274 20.4415 9.49272 20.4569 9.26939V8.95604C20.4238 8.52403 20.2569 8.15136 19.9685 7.89602L19.9669 7.89535L15.6177 4.10993L15.6115 4.10459C15.1562 3.68991 14.4923 3.36724 13.7992 3.33591C13.1492 3.30657 12.3531 3.52591 11.5538 4.39793C11.1377 4.85977 10.7393 5.33338 10.3592 5.81797C9.32077 7.11333 8.37692 8.28936 6.26154 9.35539C4.96154 10.0101 4.25385 10.4301 3.86846 11.1101C3.67325 11.4696 3.56239 11.8592 3.54231 12.2561L3.54154 12.5655Z" fill="#1B3E1E"/>
</svg>
