<svg width="32" height="32" viewBox="0 0 32 32" fill="none" xmlns="http://www.w3.org/2000/svg">
<path d="M13.1655 17.6347C13.1655 17.8365 13.1015 18.0338 12.9817 18.2015C12.8619 18.3693 12.6915 18.5 12.4922 18.5772C12.2929 18.6545 12.0736 18.6747 11.862 18.6353C11.6505 18.5959 11.4561 18.4988 11.3036 18.3561C11.151 18.2134 11.0472 18.0317 11.0051 17.8338C10.963 17.6359 10.9846 17.4308 11.0671 17.2444C11.1497 17.0579 11.2895 16.8986 11.4689 16.7865C11.6482 16.6744 11.8591 16.6146 12.0748 16.6146C12.3641 16.6146 12.6415 16.7221 12.8461 16.9134C13.0506 17.1047 13.1655 17.3642 13.1655 17.6347ZM19.9278 16.6146C19.7121 16.6146 19.5012 16.6744 19.3219 16.7865C19.1425 16.8986 19.0027 17.0579 18.9202 17.2444C18.8376 17.4308 18.816 17.6359 18.8581 17.8338C18.9002 18.0317 19.0041 18.2134 19.1566 18.3561C19.3091 18.4988 19.5035 18.5959 19.7151 18.6353C19.9266 18.6747 20.1459 18.6545 20.3452 18.5772C20.5445 18.5 20.7149 18.3693 20.8347 18.2015C20.9546 18.0338 21.0185 17.8365 21.0185 17.6347C21.0185 17.3642 20.9036 17.1047 20.6991 16.9134C20.4945 16.7221 20.2171 16.6146 19.9278 16.6146ZM27.1013 17.7082C26.8997 17.7946 26.6807 17.8395 26.4589 17.8398C26.2575 17.8394 26.0582 17.801 25.8731 17.7268C25.6879 17.6527 25.5206 17.5443 25.3813 17.4083V22.1234C25.3813 23.1516 24.9446 24.1376 24.1674 24.8646C23.3901 25.5916 22.3359 26 21.2367 26H10.766C9.66675 26 8.61255 25.5916 7.83527 24.8646C7.058 24.1376 6.62134 23.1516 6.62134 22.1234V17.4083C6.48164 17.5441 6.31413 17.6522 6.12881 17.7262C5.94348 17.8001 5.74413 17.8384 5.54264 17.8388C5.32126 17.8383 5.10257 17.7934 4.90131 17.7072C4.58717 17.5782 4.32948 17.3528 4.17083 17.0682C4.01218 16.7837 3.96206 16.457 4.02875 16.1423L5.81967 7.16492C5.85806 6.97351 5.9379 6.79145 6.05428 6.62996C6.17066 6.46846 6.32112 6.33093 6.49642 6.22583C6.67172 6.12073 6.86815 6.05027 7.07364 6.01878C7.27912 5.9873 7.48932 5.99546 7.69131 6.04276L7.71749 6.0499L13.4775 7.63725H18.5252L24.283 6.055L24.3092 6.04786C24.5112 6.00056 24.7214 5.9924 24.9268 6.02389C25.1323 6.05537 25.3288 6.12583 25.5041 6.23093C25.6793 6.33603 25.8298 6.47356 25.9462 6.63506C26.0626 6.79655 26.1424 6.97861 26.1808 7.17002L27.9717 16.1474C28.0377 16.4613 27.9875 16.7869 27.8293 17.0706C27.6711 17.3543 27.4144 17.5791 27.1013 17.7082ZM12.2799 8.58294L7.36737 7.22919C7.33971 7.22312 7.31101 7.22243 7.28305 7.22717C7.2551 7.23191 7.22848 7.24197 7.20486 7.25674C7.17989 7.27187 7.15849 7.29163 7.14198 7.31479C7.12548 7.33794 7.11421 7.36402 7.10888 7.3914L5.31795 16.3687C5.30867 16.4137 5.31585 16.4603 5.33832 16.501C5.36079 16.5417 5.39725 16.5742 5.44183 16.5931C5.48641 16.6121 5.53652 16.6165 5.58409 16.6056C5.63166 16.5947 5.67391 16.5691 5.70406 16.533L12.2799 8.58294ZM24.0725 22.1234V15.8423L18.2983 8.86144H13.7043L7.93017 15.8423V22.1234C7.93017 22.8269 8.22894 23.5015 8.76076 23.9989C9.29258 24.4964 10.0139 24.7758 10.766 24.7758H15.3469V23.1925L13.7938 21.7398C13.6782 21.6238 13.6152 21.4703 13.6182 21.3118C13.6212 21.1532 13.6899 21.0019 13.8098 20.8898C13.9297 20.7776 14.0915 20.7134 14.261 20.7106C14.4305 20.7078 14.5946 20.7666 14.7187 20.8748L16.0013 22.0734L17.284 20.8748C17.408 20.7666 17.5721 20.7078 17.7417 20.7106C17.9112 20.7134 18.073 20.7776 18.1929 20.8898C18.3128 21.0019 18.3814 21.1532 18.3844 21.3118C18.3874 21.4703 18.3245 21.6238 18.2089 21.7398L16.6557 23.1925V24.7758H21.2367C21.9888 24.7758 22.7101 24.4964 23.2419 23.9989C23.7737 23.5015 24.0725 22.8269 24.0725 22.1234ZM26.6902 16.3698L24.8992 7.39242C24.8938 7.36522 24.8824 7.33934 24.8659 7.31637C24.8494 7.29339 24.8281 7.2738 24.8032 7.25878C24.7547 7.23073 24.6967 7.22089 24.6407 7.23123L19.7326 8.5809L26.3117 16.5381C26.3431 16.5712 26.3851 16.5938 26.4314 16.6026C26.4777 16.6114 26.5259 16.6059 26.5685 16.587C26.6112 16.568 26.6462 16.5365 26.6681 16.4973C26.6901 16.4582 26.6978 16.4134 26.6902 16.3698Z" fill="#1B3E1E"/>
</svg>
