<svg width="32" height="32" viewBox="0 0 32 32" fill="none" xmlns="http://www.w3.org/2000/svg">
<path d="M25.625 24.6667C25.0727 24.6667 24.625 24.219 24.625 23.6667V11C24.625 10.4477 24.1773 10 23.625 10H21.3125C20.7602 10 20.3125 9.55228 20.3125 9V7C20.3125 6.44772 19.8648 6 19.3125 6H8.375C7.82272 6 7.375 6.44772 7.375 7V23.6667C7.375 24.219 6.92728 24.6667 6.375 24.6667H5.16667C4.79848 24.6667 4.5 24.9651 4.5 25.3333C4.5 25.7015 4.79848 26 5.16667 26H13.5625C14.1148 26 14.5625 25.5523 14.5625 25V23C14.5625 22.4477 15.0102 22 15.5625 22H16.4375C16.9898 22 17.4375 22.4477 17.4375 23V25C17.4375 25.5523 17.8852 26 18.4375 26H26.8333C27.2015 26 27.5 25.7015 27.5 25.3333C27.5 24.9651 27.2015 24.6667 26.8333 24.6667H25.625ZM13.125 18.3333C13.125 18.8856 12.6773 19.3333 12.125 19.3333H11.25C10.6977 19.3333 10.25 18.8856 10.25 18.3333V17.6667C10.25 17.1144 10.6977 16.6667 11.25 16.6667H12.125C12.6773 16.6667 13.125 17.1144 13.125 17.6667V18.3333ZM13.125 14.3333C13.125 14.8856 12.6773 15.3333 12.125 15.3333H11.25C10.6977 15.3333 10.25 14.8856 10.25 14.3333V13.6667C10.25 13.1144 10.6977 12.6667 11.25 12.6667H12.125C12.6773 12.6667 13.125 13.1144 13.125 13.6667V14.3333ZM13.125 10.3333C13.125 10.8856 12.6773 11.3333 12.125 11.3333H11.25C10.6977 11.3333 10.25 10.8856 10.25 10.3333V9.66667C10.25 9.11438 10.6977 8.66667 11.25 8.66667H12.125C12.6773 8.66667 13.125 9.11438 13.125 9.66667V10.3333ZM17.4375 18.3333C17.4375 18.8856 16.9898 19.3333 16.4375 19.3333H15.5625C15.0102 19.3333 14.5625 18.8856 14.5625 18.3333V17.6667C14.5625 17.1144 15.0102 16.6667 15.5625 16.6667H16.4375C16.9898 16.6667 17.4375 17.1144 17.4375 17.6667V18.3333ZM17.4375 14.3333C17.4375 14.8856 16.9898 15.3333 16.4375 15.3333H15.5625C15.0102 15.3333 14.5625 14.8856 14.5625 14.3333V13.6667C14.5625 13.1144 15.0102 12.6667 15.5625 12.6667H16.4375C16.9898 12.6667 17.4375 13.1144 17.4375 13.6667V14.3333ZM17.4375 10.3333C17.4375 10.8856 16.9898 11.3333 16.4375 11.3333H15.5625C15.0102 11.3333 14.5625 10.8856 14.5625 10.3333V9.66667C14.5625 9.11438 15.0102 8.66667 15.5625 8.66667H16.4375C16.9898 8.66667 17.4375 9.11438 17.4375 9.66667V10.3333ZM23.1875 18.3333C23.1875 18.8856 22.7398 19.3333 22.1875 19.3333H21.3125C20.7602 19.3333 20.3125 18.8856 20.3125 18.3333V17.6667C20.3125 17.1144 20.7602 16.6667 21.3125 16.6667H22.1875C22.7398 16.6667 23.1875 17.1144 23.1875 17.6667V18.3333ZM23.1875 14.3333C23.1875 14.8856 22.7398 15.3333 22.1875 15.3333H21.3125C20.7602 15.3333 20.3125 14.8856 20.3125 14.3333V13.6667C20.3125 13.1144 20.7602 12.6667 21.3125 12.6667H22.1875C22.7398 12.6667 23.1875 13.1144 23.1875 13.6667V14.3333Z" fill="#1B3E1E"/>
</svg>
